#!OML:ASF F:\VICON\USERDATA\INSTALL\rory3\rory3.ASF
:FULLY-SPECIFIED
:DEGREES
426
root -0.628288 17.7488 2.60285 7.2473 13.8855 -1.84444
lowerback 10.4158 0.810009 -5.1
upperback 1.92203 0.47302 -1.18928
thorax -3.86496 0.293293 1.56726
lowerneck -24.5884 -6.02843 -12.2165
upperneck 9.09094 -6.16157 12.6159
head 7.56141 -2.20948 5.39177
rclavicle 1.37161e-014 1.66979e-014
rhumerus 27.2457 26.7521 -95.8245
rradius 42.0555
rwrist -0.491493
rhand -34.6642 -2.6757
rfingers 7.12502
rthumb -7.82065 -32.5111
lclavicle 1.37161e-014 1.66979e-014
lhumerus 19.0433 -9.46924 97.4267
lradius 53.8247
lwrist 50.4547
lhand -21.591 39.0822
lfingers 7.12502
lthumb 4.80369 69.0077
rfemur -15.001 -9.39074 16.889
rtibia 56.0529
rfoot -5.45426 -2.18624
rtoes -13.8228
lfemur -29.2 -4.45131 -16.5293
ltibia 26.4193
lfoot -1.5836 -14.5383
ltoes -7.92638
427
root -0.660563 17.7395 2.57927 6.87567 13.8756 -2.11775
lowerback 10.1615 0.864972 -4.81548
upperback 1.97773 0.596696 -1.14693
thorax -3.6717 0.346499 1.43781
lowerneck -24.7865 -6.19352 -12.3375
upperneck 9.044 -6.34546 12.7794
head 7.61266 -2.2792 5.44046
rclavicle -2.60408e-014 -1.59028e-014
rhumerus 28.0082 26.357 -96.1314
rradius 41.8235
rwrist -1.48321
rhand -34.727 -4.09405
rfingers 7.12502
rthumb -7.88129 -33.9271
lclavicle -2.60408e-014 -1.59028e-014
lhumerus 19.3275 -8.48354 97.7739
lradius 54.1805
lwrist 49.2927
lhand -21.7019 39.2128
lfingers 7.12502
lthumb 4.6966 69.1407
rfemur -14.6879 -9.42444 17.3274
rtibia 55.8554
rfoot -4.75661 -1.75152
rtoes -14.5049
lfemur -28.9417 -4.81815 -16.0214
ltibia 26.3508
lfoot -1.53191 -14.1516
ltoes -8.27019
428
root -0.689363 17.742 2.55357 6.71246 13.9368 -1.97211
lowerback 9.87094 0.897327 -4.85534
upperback 1.94144 0.649407 -1.21819
thorax -3.55125 0.370847 1.38183
lowerneck -24.6585 -6.30396 -12.4913
upperneck 8.88039 -6.48015 12.9859
head 7.5713 -2.33469 5.51588
rclavicle -5.40694e-014 7.95139e-016
rhumerus 28.633 26.3518 -96.1528
rradius 41.8763
rwrist -3.67846
rhand -34.7001 -4.59285
rfingers 7.12502
rthumb -7.85537 -34.4269
lclavicle -5.40694e-014 7.95139e-016
lhumerus 19.5521 -7.93817 97.7187
lradius 54.3874
lwrist 48.4769
lhand -21.708 39.1157
lfingers 7.12502
lthumb 4.69077 69.0437
rfemur -14.4267 -9.65206 17.2777
rtibia 55.5506
rfoot -3.98692 -1.29608
rtoes -14.1059
lfemur -28.788 -4.73325 -16.1459
ltibia 26.2408
lfoot -1.42165 -14.3321
ltoes -8.09893
429
root -0.718135 17.7371 2.52826 6.47297 14.068 -1.88709
lowerback 9.7261 0.92593 -4.86478
upperback 1.83356 0.690304 -1.23903
thorax -3.58579 0.393265 1.36088
lowerneck -24.3504 -6.38256 -12.6078
upperneck 8.71422 -6.58705 13.0809
head 7.49069 -2.39268 5.55057
rclavicle -2.20651e-014 1.74931e-014
rhumerus 28.8042 26.1661 -96.4007
rradius 42.1571
rwrist -5.42583
rhand -34.4479 -4.00337
rfingers 7.12502
rthumb -7.61194 -33.8464
lclavicle -2.20651e-014 1.74931e-014
lhumerus 19.5876 -7.56099 97.5612
lradius 54.4902
lwrist 47.1611
lhand -20.9905 38.768
lfingers 7.12502
lthumb 5.38353 68.6796
rfemur -14.0858 -9.92825 17.2929
rtibia 55.2003
rfoot -3.2246 -1.0134
rtoes -14.5211
lfemur -28.5746 -4.92587 -16.1444
ltibia 26.1416
lfoot -1.33736 -14.3036
ltoes -8.31376
430
root -0.751339 17.7339 2.50211 6.21114 14.1649 -1.9096
lowerback 9.57595 0.943409 -4.84322
upperback 1.76858 0.724016 -1.19903
thorax -3.57249 0.41046 1.38728
lowerneck -24.3394 -6.46409 -12.6613
upperneck 8.75219 -6.68362 13.0711
head 7.51555 -2.44156 5.54183
rclavicle 3.97569e-014 -1.82882e-014
rhumerus 28.9314 25.8922 -96.7673
rradius 42.3708
rwrist -6.29316
rhand -33.6756 -3.50668
rfingers 7.12502
rthumb -6.86637 -33.3753
lclavicle 3.97569e-014 -1.82882e-014
lhumerus 19.5928 -7.24517 97.2393
lradius 54.6168
lwrist 45.0186
lhand -23.6104 39.1098
lfingers 7.12502
lthumb 2.85362 69.0704
rfemur -13.7557 -10.0775 17.465
rtibia 54.745
rfoot -2.72816 -1.14657
rtoes -15.034
lfemur -28.3439 -4.95354 -16.0391
ltibia 25.9841
lfoot -1.22427 -14.4038
ltoes -8.61444
